<svg width="13" height="13" viewBox="0 0 13 13" fill="none" xmlns="http://www.w3.org/2000/svg">
<path d="M12.5547 1.08591L10.1172 0.523409C9.85936 0.453097 9.57811 0.593722 9.46092 0.851534L8.33592 3.47653C8.24217 3.71091 8.31248 3.96872 8.49998 4.13278L9.92967 5.30466C9.08592 7.08591 7.60936 8.58591 5.78123 9.4531L4.60936 8.02341C4.44529 7.83591 4.18748 7.7656 3.95311 7.85935L1.32811 8.98435C1.07029 9.10153 0.953107 9.38278 0.999982 9.6406L1.56248 12.0781C1.63279 12.3359 1.84373 12.5 2.12498 12.5C8.12498 12.5 13 7.64841 13 1.62497C13 1.36716 12.8125 1.15622 12.5547 1.08591Z" fill="#2B3655"/>
</svg>